PathFileType	4	(X/Y/Z)	 s04c0201.trc
DataRate	CameraRate	NumFrames	NumMarkers	Units	OrigDataRate	OrigDataStartFrame	OrigNumFrames
200	200	4	51	mm	200	1001	2000
Frame#	Time	racr			lacr			c7			jug			rlel			rdr			llel			ldr			s2			lic			ric			lasi			rasi			rpsi			lpsi			rgt			lgt			rth1			rth2			rth3			rth4			rlfc			rmfc			rsh1			rsh2			rsh3			rsh4			rlmal			rmmal			rcal			rtoe			rmt5			lth1			lth2			lth4			lth3			llfc			lmfc			lsh1			lsh2			lsh3			lsh4			llmal			lmmal			lcal			ltoe			lmt1			lmt5			SBIKE			LBIKE			RBIKE			
		X1	Y1	Z1	X2	Y2	Z2	X3	Y3	Z3	X4	Y4	Z4	X5	Y5	Z5	X6	Y6	Z6	X7	Y7	Z7	X8	Y8	Z8	X9	Y9	Z9	X10	Y10	Z10	X11	Y11	Z11	X12	Y12	Z12	X13	Y13	Z13	X14	Y14	Z14	X15	Y15	Z15	X16	Y16	Z16	X17	Y17	Z17	X18	Y18	Z18	X19	Y19	Z19	X20	Y20	Z20	X21	Y21	Z21	X22	Y22	Z22	X23	Y23	Z23	X24	Y24	Z24	X25	Y25	Z25	X26	Y26	Z26	X27	Y27	Z27	X28	Y28	Z28	X29	Y29	Z29	X30	Y30	Z30	X31	Y31	Z31	X32	Y32	Z32	X33	Y33	Z33	X34	Y34	Z34	X35	Y35	Z35	X36	Y36	Z36	X37	Y37	Z37	X38	Y38	Z38	X39	Y39	Z39	X40	Y40	Z40	X41	Y41	Z41	X42	Y42	Z42	X43	Y43	Z43	X44	Y44	Z44	X45	Y45	Z45	X46	Y46	Z46	X47	Y47	Z47	X48	Y48	Z48	X49	Y49	Z49	X50	Y50	Z50	X51	Y51	Z51	
1001	5.0050	487.702768	1368.754349	-137.487219	496.275905	1375.690321	-413.847269	469.175504	1441.163527	-278.059121	440.556713	1285.373322	-285.357191	435.784827	1096.378851	29.415680	661.912927	944.053518	-83.331629	482.244480	1126.440901	-570.784886	686.866452	951.819650	-455.709650	-80.473800	1187.182935	-275.391935	63.942098	1214.636601	-438.338211	75.235346	1201.686158	-115.297034	107.688412	1178.174627	-392.085170	121.766022	1159.093656	-162.712112	-50.785185	1231.872471	-233.051516	-59.242264	1237.861646	-306.062513	31.306511	1144.122955	-99.171313	44.608537	1115.454174	-458.402269	143.307209	1021.157758	-85.555537	214.753744	968.707803	-89.177171	253.043937	892.642128	-85.583922	239.888804	990.372375	-105.007689	316.225872	760.957642	-97.472583	305.339046	742.740438	-212.028199	229.533682	662.862475	-76.373734	197.191992	582.406890	-97.669931	125.431272	535.757040	-111.742658	226.147290	566.104897	-118.982073	37.440134	408.518678	-125.101803	72.541938	404.650503	-206.430332	-28.352344	417.309123	-175.852565	203.140919	219.483221	-145.098019	129.634761	243.008481	-99.885556	114.305262	1050.802049	-464.255741	197.666458	1026.719384	-463.585233	216.088976	1057.664872	-456.052185	259.096474	962.396617	-459.601463	378.259284	856.878005	-433.160032	406.169500	838.036529	-321.800472	363.926200	737.511837	-456.941469	360.580607	652.525027	-436.509338	316.946793	575.462958	-437.266250	386.462013	648.409071	-406.936746	268.989319	439.648482	-436.494623	263.800624	438.988362	-345.576117	191.591116	403.189308	-399.182120	488.881620	441.731615	-398.142178	NaN	NaN	NaN	428.843601	392.054110	-461.473719	-178.557213	939.186942	-278.461486	-4.107841	85.605111	-483.940764	-15.818937	80.464439	-83.327876	
1002	5.0100	486.847648	1369.077921	-137.319228	495.206492	1375.765326	-413.764365	468.507705	1441.220851	-277.971669	440.530512	1285.400161	-284.939618	434.799458	1096.821240	29.338700	660.938885	943.741125	-82.954259	481.518102	1126.697623	-570.685399	686.328471	952.040368	-455.271062	-80.318956	1184.529498	-275.542074	64.305255	1212.021347	-438.927458	75.476788	1200.224631	-115.678815	108.483870	1176.542366	-392.311514	121.914091	1157.742156	-163.283814	-51.696864	1229.732338	-233.068841	-59.662688	1235.074074	-306.425081	32.508317	1142.695672	-98.907284	45.096813	1110.017004	-457.841092	145.933463	1021.646263	-86.150508	218.447171	970.320053	-89.854777	257.959753	894.984258	-86.228567	243.363042	992.985017	-104.697490	322.273759	764.344110	-97.813655	310.607557	745.573246	-212.393585	234.054141	668.133203	-76.738279	199.542013	588.677752	-97.903740	126.543708	543.828795	-111.707765	228.042774	571.733146	-119.338850	35.679217	419.120778	-125.062921	70.758121	414.572548	-206.453689	-30.194231	428.652616	-175.541533	199.137298	228.465388	-145.167490	125.910668	252.783334	-99.710130	115.037781	1044.803966	-464.340577	198.104153	1019.460194	-463.449155	216.906157	1050.070997	-456.006603	258.451256	954.229613	-459.085955	374.857107	847.688830	-432.621213	402.476408	828.685387	-321.122248	361.516213	727.309730	-456.169995	359.540733	642.111166	-436.372937	317.164141	564.441392	-437.377183	385.709921	638.218564	-406.930284	271.770965	427.194902	-436.654450	266.294030	427.008276	-345.802719	194.944719	389.645491	-399.568826	491.734799	432.394801	-397.783258	NaN	NaN	NaN	432.421676	381.863090	-461.258763	-178.527986	939.214241	-278.067813	-4.109112	85.631389	-483.910820	-15.805535	80.426143	-83.270348	
1003	5.0150	486.106788	1369.393965	-137.146460	494.005869	1375.787056	-413.631884	467.903836	1441.312741	-277.963285	440.444575	1285.395324	-284.446854	434.091594	1097.179236	29.268911	660.402365	943.537467	-82.344097	480.820485	1126.836750	-570.498268	685.891818	952.203743	-454.857072	-80.184866	1181.726482	-275.548626	64.727580	1209.336919	-439.563273	75.645737	1198.911902	-115.939751	109.250064	1174.637655	-392.677680	122.236131	1156.883766	-163.797830	-52.531323	1227.701590	-233.089770	-60.066579	1232.148808	-306.699997	33.802925	1141.000908	-98.665667	45.451168	1104.966565	-457.373344	148.423414	1021.912932	-86.495783	221.767296	971.757586	-90.185003	262.421719	897.131626	-86.145441	245.810404	994.474219	-105.489171	328.012580	767.635888	-98.023111	315.549797	748.321574	-212.578956	238.597666	673.365899	-77.272932	201.729019	594.822470	-98.145509	127.735605	551.813332	-111.760944	229.783382	577.381810	-119.661544	34.211965	429.777154	-125.182075	69.030944	424.530088	-206.609686	-31.791373	439.986257	-175.371221	195.772899	238.038219	-145.234473	122.816607	262.732393	-99.572635	115.622100	1039.129244	-464.396018	198.270021	1012.472149	-463.296060	217.544864	1042.786021	-455.930051	257.541809	946.242428	-458.683844	370.979478	838.813956	-432.517456	398.612558	819.377889	-320.647324	358.732017	717.020813	-455.529378	358.113195	631.883509	-436.369231	316.899330	553.629076	-437.472101	384.498793	628.206885	-407.094591	274.143366	415.049709	-437.032457	268.740914	414.680940	-345.988779	197.767586	376.713890	-400.203581	494.123812	422.543696	-397.388720	NaN	NaN	NaN	435.495729	371.441379	-460.950884	-178.543354	939.166260	-277.904838	-4.105622	85.671679	-483.876954	-15.811975	80.392994	-83.247025	
1004	5.0200	485.314738	1369.703773	-137.068664	492.767273	1375.681444	-413.394692	467.218467	1441.372721	-277.931277	440.299183	1285.491533	-284.052452	433.611868	1097.345210	29.157533	660.217111	943.419676	-81.903194	480.203446	1126.870760	-570.161720	685.490681	952.243782	-454.382729	-79.999006	1179.169905	-275.739504	65.266413	1206.806918	-440.336829	75.802814	1197.660557	-116.322276	110.107105	1172.816402	-393.225242	122.640437	1156.126033	-164.369652	-53.286960	1225.144158	-233.089182	-60.497596	1229.168197	-307.024229	35.031977	1139.190208	-98.507211	45.787192	1100.484271	-456.876053	150.723510	1022.016111	-86.178489	224.660583	972.981528	-90.127049	266.649967	899.088780	-85.748790	248.827690	996.108638	-106.307308	333.566671	770.734351	-98.076889	320.275710	751.216507	-212.688555	243.208347	678.679410	-77.983024	204.082603	601.130007	-98.322806	129.105007	559.748135	-111.822762	231.601268	583.182347	-119.962489	33.245445	440.364982	-125.359443	67.714028	434.375421	-206.856000	-33.138404	451.204407	-175.439675	193.066211	248.048207	-145.328675	120.342151	273.237588	-99.443283	115.889270	1033.960749	-464.469048	198.051900	1005.757686	-463.191945	217.844985	1035.726339	-455.849221	256.053144	938.477458	-458.197823	367.198290	829.686141	-432.418236	394.142112	809.642948	-320.129852	355.757525	706.916326	-455.558801	356.355580	621.776342	-436.538938	316.204628	543.065392	-437.810202	382.894911	618.432986	-407.376374	276.381781	403.141337	-437.465649	270.407055	402.366856	-346.482890	199.969475	364.339117	-401.139069	496.139400	412.203578	-396.768066	NaN	NaN	NaN	438.033595	361.005739	-460.780115	-178.513695	939.349350	-278.130671	-4.085110	85.658076	-483.854351	-15.811299	80.405994	-83.244277	
